<svg width="499" height="126" viewBox="0 0 499 126" fill="none" xmlns="http://www.w3.org/2000/svg">
<path d="M0.0834705 21.3536C0.0833367 9.56085 9.64409 0.00134494 21.4368 0.00300383C36.9296 0.00518321 47.3296 16.02 41.2234 30.2586C36.486 41.3053 31.7897 52.3895 27.1174 63.2153L14.2003 93.1447C12.4562 97.2224 10.6275 101.26 8.93409 105.359C7.84699 107.99 7.31016 109.784 8.4702 112.559C9.38 114.713 11.1187 116.401 13.2859 117.233C15.0841 117.931 16.0956 117.995 17.873 117.449C21.0469 116.473 24.1484 114.93 27.183 113.553L39.9617 107.799L85.4719 87.2997C97.9204 81.7018 112 90.8082 111.999 104.457L111.999 106.11C111.999 117.089 103.1 125.989 92.1212 125.99L24.5997 126C16.6502 126.008 11.71 125.752 5.71892 119.791C-0.97464 113.13 0.0490299 105.124 0.0650484 96.4945L0.0840935 76.2495L0.0834705 21.3536Z" fill="#AE6AF1"/>
<path d="M86.5748 10.0431C99.8044 9.25609 111.168 19.3417 111.957 32.5712C112.746 45.8006 102.662 57.1653 89.4322 57.9565C76.2002 58.7476 64.8325 48.6613 64.0433 35.4289C63.2541 22.1965 73.3424 10.8303 86.5748 10.0431Z" fill="url(#paint0_linear_15_2226)"/>
<path d="M228.922 126H166C151.641 126 140 114.359 140 100V0H167.645V102.706H228.922V126Z" fill="#AE6AF1"/>
<path d="M293.137 126H238.904V0H293.137C309.454 0 323.012 5.17647 333.812 15.5294C344.729 25.7647 350.188 41.3529 350.188 62.2941C350.188 80.5294 345.492 95.7059 336.101 107.824C326.71 119.941 312.389 126 293.137 126ZM286.27 23.2941H266.549V102.706H291.2C299.183 102.706 306.402 99.8823 312.858 94.2353C319.315 88.5882 322.543 78.8235 322.543 64.9412C322.543 52.2353 319.902 42.1176 314.619 34.5882C309.454 27.0588 300.004 23.2941 286.27 23.2941Z" fill="#AE6AF1"/>
<path d="M389.476 126H363.592V15C363.592 6.71573 370.308 0 378.592 0H391.757C398.183 0 403.896 4.09382 405.961 10.1794L431.912 86.6471H432.265L456.742 10.4143C458.734 4.20876 464.506 0 471.024 0H484C492.284 0 499 6.71573 499 15V126H473.116V36.7059H472.764L445.43 115.913C443.347 121.95 437.664 126 431.279 126C424.91 126 419.239 121.971 417.143 115.957L389.829 37.5882H389.476V126Z" fill="#AE6AF1"/>
<defs>
<linearGradient id="paint0_linear_15_2226" x1="88" y1="10" x2="88" y2="58" gradientUnits="userSpaceOnUse">
<stop stop-color="#A856F7"/>
<stop offset="1" stop-color="#C3A9DB"/>
</linearGradient>
</defs>
</svg>
